<svg xmlns:xlink="http://www.w3.org/1999/xlink" width="32" height="32" fill="none" xmlns="http://www.w3.org/2000/svg"><g clip-path="url(#a)" fill="none"><mask id="b" style="mask-type:alpha" maskUnits="userSpaceOnUse" x="2" y="0" width="32" height="32" fill="none"><path fill="#C4C4C4" d="M2 0h32v32H2z"></path></mask><g mask="url(#b)" stroke-linecap="round" stroke-linejoin="round" fill="none"><path d="M5.879 26.337v1.139c0 .615.643 1.114 1.436 1.114.793 0 1.436-.5 1.436-1.114V26.36M23.733 26.337v1.139c0 .615-.643 1.114-1.436 1.114-.793 0-1.436-.5-1.436-1.114V26.36" stroke="#777777" stroke-width="1.5px" fill="none"></path><path clip-rule="evenodd" d="M5.95 19.255h17.712c1.058 0 1.915.857 1.915 1.915v3.59a.957.957 0 0 1-.957.957H4.993a.957.957 0 0 1-.958-.957v-3.59c0-1.058.857-1.915 1.915-1.915Z" stroke="#777777" stroke-width="1.5px" fill="none"></path><path d="M12.892 13.702v-1.293c0-.714.857-1.292 1.915-1.292h.957c1.058 0 1.915.578 1.915 1.292v1.333" stroke="#FF4D00" stroke-width="1.5px" fill="none"></path><path d="m23.423 19.016-1.628-3.629a2.153 2.153 0 0 0-2.016-1.398H9.836a2.153 2.153 0 0 0-2.02 1.398L6.19 19.016" stroke="#777777" stroke-width="1.5px" fill="none"></path><path d="M20.621 22.944h.902M8.273 22.944h.9" stroke="#FF611C" stroke-width="1.69px" fill="none"></path><path clip-rule="evenodd" d="M28.548 6.77c.871 0 1.577-.689 1.577-1.537 0-.408-.166-.799-.462-1.087a1.598 1.598 0 0 0-1.115-.45h-8.786L18.411 1.5h-1.803v2.635c0 1.455 1.21 2.634 2.704 2.634h2.252v2.177c0 .167.099.32.253.394a.46.46 0 0 0 .474-.048L25.62 6.77h2.93Z" stroke="#777777" stroke-width="1.5px" fill="none"></path></g></g><defs><clipPath id="a"><path fill="#fff" d="M0 0h32v32H0z"></path></clipPath></defs></svg>