<svg xmlns:xlink="http://www.w3.org/1999/xlink" width="32" height="32" fill="none" xmlns="http://www.w3.org/2000/svg"><path d="M9.014 21.524a1.08 1.08 0 0 1 .36-.72l1.68-2.16s-4.809-.02-4.904.006c-.257.068-1.216.714-1.216.714a.6.6 0 0 0 0 .84l4.2 2.28h.12c-.12-.24-.24-.36-.24-.6v-.36Z" fill="#2276E3"></path><circle cx="14.474" cy="6.505" r="1.5" fill="#FF6D38"></circle><circle cx="25.474" cy="17.505" r="1.5" fill="#FF6D38"></circle><path d="M10.454 22.965a1.08 1.08 0 0 0 .72-.36l2.16-1.68s.017 4.768.005 4.828c-.048.25-.845 1.292-.845 1.292-.12.24-.48.24-.72 0l-2.28-4.2h.12l.6.24.24-.12Z" fill="#2276E3"></path><path d="m19.334 9.044-3 3-2.28 2.76-9.36-5.4a1.32 1.32 0 0 1-.36-2.04l.96-.96a1.32 1.32 0 0 1 1.32-.36l12.72 3ZM22.934 12.645l-3 3-.24.24-2.52 2.04 5.4 9.36a1.32 1.32 0 0 0 2.04.36l.96-.96a1.32 1.32 0 0 0 .36-1.32l-3-12.72Z" stroke="#2276E3" stroke-width="1.385px" fill="none"></path><path clip-rule="evenodd" d="M10.334 22.965a1.32 1.32 0 0 1-1.32-1.32 1.08 1.08 0 0 1 .36-.72l4.68-6 2.16-2.76 2.28-2.28 5.16-5.16a2.04 2.04 0 0 1 1.56-.72h1.08a1.56 1.56 0 0 1 1.68 1.56v1.2a2.04 2.04 0 0 1-.6 1.44l-7.44 7.44-8.76 6.96a1.08 1.08 0 0 1-.72.36h-.12Z" stroke="#2276E3" stroke-width="1.385px" fill="none"></path></svg>