<svg xmlns:xlink="http://www.w3.org/1999/xlink" width="32" height="32" fill="none" xmlns="http://www.w3.org/2000/svg"><path d="M8.43 24.834v1.6c0 .847.825 1.534 1.842 1.534 1.016 0 1.84-.687 1.84-1.534V24.9M24.575 24.834v1.6c0 .847-.824 1.534-1.84 1.534-1.017 0-1.841-.687-1.841-1.534V24.9M6.835 7.104H5.301c-.847 0-1.534.687-1.534 1.534v3.068M26.165 7.104h1.534c.847 0 1.534.686 1.534 1.534v3.068" stroke="#2276E3" stroke-width="1.385px" stroke-linecap="round" stroke-linejoin="round" fill="none"></path><rect x="6.835" y="3.307" width="19.329" height="20.864" rx="1.538" stroke="#2276E3" stroke-width="1.385px" stroke-linecap="round" stroke-linejoin="round" fill="none"></rect><path d="M24.938 16.31H8.063" stroke="#2276E3" stroke-width="1.385px" stroke-linecap="round" stroke-linejoin="round" fill="none"></path><path d="M18.801 19.378h3.069M11.13 19.378H14.2" stroke="#FF6D38" stroke-width="1.385px" stroke-linecap="round" stroke-linejoin="round" fill="none"></path><path d="M14.199 6.798H18.8" stroke="#2276E3" stroke-width="1.385px" stroke-linecap="round" stroke-linejoin="round" fill="none"></path></svg>