<svg xmlns:xlink="http://www.w3.org/1999/xlink" width="32" height="32" fill="none" xmlns="http://www.w3.org/2000/svg"><path d="M25.732 21.793h2.49c.981 0 1.777-.796 1.777-1.778V8.458c0-.982-.796-1.778-1.778-1.778H6.885c-.982 0-1.778.796-1.778 1.778v2.933" stroke="#777777" stroke-width="1.5px" fill="none"></path><rect x="2.301" y="10.985" width="23.392" height="14.265" rx="1.028" stroke="#777777" stroke-width="1.5px" fill="none"></rect><path d="M15.13 13.086v1.492h-.805v-1.492h.805Zm-.102 8.317v1.37h-.805v-1.37h.805Zm.448-1.686c0-.19-.032-.35-.097-.479a.876.876 0 0 0-.305-.34 2.98 2.98 0 0 0-.566-.291 9.72 9.72 0 0 1-1.181-.55 2.281 2.281 0 0 1-.795-.724c-.19-.288-.285-.658-.285-1.11 0-.42.102-.786.305-1.095.204-.312.486-.553.846-.723.363-.17.783-.255 1.258-.255.363 0 .694.054.993.163.299.109.555.265.77.469.216.204.383.455.498.754.116.295.173.633.173 1.013h-1.594c0-.2-.02-.373-.06-.52a.975.975 0 0 0-.18-.366.735.735 0 0 0-.274-.22.809.809 0 0 0-.346-.07.82.82 0 0 0-.459.117.651.651 0 0 0-.26.305 1.106 1.106 0 0 0-.081.433c0 .163.029.306.086.428a.94.94 0 0 0 .306.336c.143.102.338.206.586.31a9 9 0 0 1 1.171.571c.34.197.605.44.795.729.193.285.29.653.29 1.105 0 .441-.104.816-.31 1.125-.204.31-.491.545-.861.708-.367.16-.791.24-1.274.24-.322 0-.641-.04-.957-.122a2.562 2.562 0 0 1-.856-.413 2.008 2.008 0 0 1-.616-.759c-.153-.316-.23-.703-.23-1.161h1.595c0 .238.029.436.087.596.06.156.14.282.239.377a.937.937 0 0 0 .341.198c.13.041.262.061.397.061a.925.925 0 0 0 .48-.112.702.702 0 0 0 .28-.3.987.987 0 0 0 .09-.428Z" fill="#FF6D38"></path></svg>