<svg xmlns:xlink="http://www.w3.org/1999/xlink" width="32" height="32" fill="none" xmlns="http://www.w3.org/2000/svg"><path clip-rule="evenodd" d="M4.758 4h11.375A.975.975 0 0 1 17 5.083v23.184H4V5.083C4 4.433 4.325 4 4.758 4Z" stroke="#2276E3" stroke-width="1.385px" fill="none"></path><path clip-rule="evenodd" d="M17.758 16.134h9.859a.65.65 0 0 1 .65.542v11.591H17V16.676c0-.325.433-.542.758-.542Z" stroke="#2276E3" stroke-width="1.385px" fill="none"></path><path d="M20.466 28.375v-6.5a.975.975 0 0 1 .976-1.083h2.383a.975.975 0 0 1 .975 1.083v6.5h-4.334Z" fill="#2276E3"></path><path d="M11.692 9.849a.975.975 0 0 1 .867-.867h.867a.867.867 0 0 1 .758.867v.866c0 .42-.34.759-.758.759h-.867a.867.867 0 0 1-.867-.759V9.85ZM11.692 21.55a.867.867 0 0 1 .867-.76h.867c.418 0 .758.34.758.76v.866a.867.867 0 0 1-.758.867h-.867a.975.975 0 0 1-.867-.867v-.867ZM6.709 15.7a.867.867 0 0 1 .758-.867h.867c.457.048.818.41.867.866v.867a.867.867 0 0 1-.867.867h-.867a.758.758 0 0 1-.758-.867v-.867ZM6.709 21.55c0-.42.34-.76.758-.76h.867a.867.867 0 0 1 .867.76v.866a.975.975 0 0 1-.867.867h-.867a.867.867 0 0 1-.758-.867v-.867ZM11.692 15.7a.975.975 0 0 1 .867-.867h.867a.867.867 0 0 1 .758.866v.867a.758.758 0 0 1-.758.867h-.867a.867.867 0 0 1-.867-.867v-.867ZM6.709 9.849a.867.867 0 0 1 .758-.867h.867c.457.049.818.41.867.867v.866a.867.867 0 0 1-.867.759h-.867a.758.758 0 0 1-.758-.759V9.85Z" fill="#FF6D38"></path></svg>