<svg xmlns:xlink="http://www.w3.org/1999/xlink" xmlns="http://www.w3.org/2000/svg" width="32" height="32" fill="none"><path fill="#FFFFFF" d="M13.519 13.75h14.65v6.511h-14.65zM11.891 20.261h17.906v5.697H11.891z"></path><path fill="#FFFFFF" stroke="#777777" stroke-linecap="round" stroke-linejoin="round" stroke-width="1.5px" d="M13.315 20.465h15.057A1.628 1.628 0 0 1 30 22.092v3.866H11.687v-3.866a1.628 1.628 0 0 1 1.628-1.627Z"></path><path stroke="#777777" stroke-linecap="round" stroke-linejoin="round" stroke-width="1.5px" d="M11.688 25.958V28.4M30 25.958V28.4M28.169 20.465V14.97a1.22 1.22 0 0 0-1.221-1.221H14.74a1.22 1.22 0 0 0-1.221 1.22v5.495" fill="none"></path><path stroke="#777777" stroke-linecap="round" stroke-linejoin="round" stroke-width="1.5px" d="M17.995 17.413h5.697a.814.814 0 0 1 .814.813v2.239h-7.325v-2.239a.814.814 0 0 1 .814-.813v0ZM8.919 19C5.573 18.515 3 15.582 3 12.035 3 8.15 6.088 5 9.897 5 12.545 5 14.844 6.521 16 8.753" fill="none"></path><path stroke="#FF6D38" stroke-linecap="round" stroke-linejoin="round" stroke-width="1.5px" d="M10.897 8.518v4.221H7.35" fill="none"></path></svg>