<svg xmlns:xlink="http://www.w3.org/1999/xlink" width="32" height="32" fill="none" xmlns="http://www.w3.org/2000/svg"><path d="M12.19 8.894v-1.5c.06-.845.857-1.502 1.82-1.5h4.095c.451 0 .886.158 1.205.439.321.282.5.663.5 1.06v1.5h-7.62Z" fill="#FF6D38"></path><path d="M25.042 14.563H7.184m18.768.682a2.161 2.161 0 0 1-1.137-1.137l-1.48-4.095a2.388 2.388 0 0 0-2.16-1.706H10.824a2.273 2.273 0 0 0-2.047 1.706l-1.594 4.095c-.181.497-.549.905-1.024 1.137a2.39 2.39 0 0 0-1.25 2.275v4.663c0 .683.34 1.252.91 1.252h20.36a1.14 1.14 0 0 0 1.023-1.252V17.52a2.617 2.617 0 0 0-1.25-2.275Z" stroke="#777777" stroke-width="1.5px" fill="none"></path><path d="M7.58 24.278v1.051c0 .568.594 1.029 1.326 1.029.732 0 1.325-.46 1.325-1.029v-1.028M22.35 24.278v1.051c0 .568.593 1.029 1.325 1.029s1.326-.46 1.326-1.029v-1.028" stroke="#777777" stroke-width="1.5px" stroke-linecap="round" stroke-linejoin="round" fill="none"></path><path d="M10.938 19.68c0 .229-.114.342-.227.342H7.526a.569.569 0 0 1-.569-.569v-.796a.682.682 0 0 1 .682-.569l2.957.569c.228 0 .342.227.342.455v.569Zm10.237 0c0 .229.114.342.228.342h3.184a.569.569 0 0 0 .57-.569v-.796a.682.682 0 0 0-.683-.569l-2.958.569c-.227 0-.341.227-.341.455v.569Z" fill="#FF6D38"></path><path d="M13.228 20.022c-.147 0-.266-.153-.266-.34v-.57c0-.227.088-.455.266-.455h5.659c.177 0 .265.228.265.455v.57c0 .187-.12.34-.265.34h-5.66Zm13.521-5.573h-1.706l-.682-1.48.909-.795.682-.228h.797a1.25 1.25 0 1 1 0 2.503Zm-21.498 0h1.82l.568-1.48-.796-.795-.796-.228H5.25a1.251 1.251 0 0 0 0 2.503Z" fill="#777777"></path></svg>