<svg xmlns:xlink="http://www.w3.org/1999/xlink" width="32" height="32" fill="none" xmlns="http://www.w3.org/2000/svg"><path d="m2.93 29.876 3.716-3.717M29.062 29.992 25.23 26.16" stroke="#2276E3" stroke-width="1.385px" stroke-linecap="round" stroke-linejoin="round" fill="none"></path><path clip-rule="evenodd" d="M21.977 24.882H9.782a2.323 2.323 0 0 1-2.323-2.44l.813-13.705v-.58a3.6 3.6 0 0 1 3.484-3.485h8.363a3.6 3.6 0 0 1 3.485 3.484v.581l.813 13.706a2.671 2.671 0 0 1-2.44 2.439Z" stroke="#2276E3" stroke-width="1.385px" stroke-linecap="round" stroke-linejoin="round" fill="none"></path><path d="M11.989 4.323v-.232c0-.962.78-1.742 1.742-1.742h4.181c.963 0 1.742.78 1.742 1.742v.232H11.99Z" fill="#2276E3"></path><circle cx="11.408" cy="21.398" r="1.394" fill="#FF6D38"></circle><circle cx="20.351" cy="21.398" r="1.394" fill="#FF6D38"></circle><path d="M15.938 8.273V17.1M24.068 16.17l-2.671.813a4.3 4.3 0 0 1-1.742.349h-7.782a3.717 3.717 0 0 1-1.626-.349l-2.44-.813.465-7.433a24.159 24.159 0 0 1 5.808-.813h3.6c2 .042 3.987.315 5.924.813" stroke="#2276E3" stroke-width="1.385px" stroke-linecap="round" stroke-linejoin="round" fill="none"></path></svg>